# xmcd
#
# Track frame offsets:
#	182
#	16982
#	32465
#	46252
#	67130
#	84132
#	107025
#	121882
#	135577
#	146047
#	164075
#	190595
#	193895
#	210832
#	228085
#
# Disc length: 3246 seconds
#
# Revision: 1
# Processed by: cddbd v1.4PL0 Copyright (c) Steve Scherf et al.
# Submitted via: audiograbber 1.81.03
#
DISCID=c40cac0f
DTITLE=T E X - One More Night
DYEAR=1991
DGENRE=Blues
TTITLE0=It's All Right
TTITLE1=You Make Me Feel
TTITLE2=Mean Mean Girl
TTITLE3=Spleen Blues
TTITLE4=Wheel Of Love
TTITLE5=Rocking Chair
TTITLE6=One More Night
TTITLE7=Tex's Blues
TTITLE8=Got To Find A Woman
TTITLE9=Father Was A Rollilng Stone
TTITLE10=Hey Baby
TTITLE11=Heart Of Soul
TTITLE12=Stevie
TTITLE13=Give Me Money, Give Me Flouze
TTITLE14=Bad Boogie
EXTD=
EXTT0=
EXTT1=
EXTT2=
EXTT3=
EXTT4=
EXTT5=
EXTT6=
EXTT7=
EXTT8=
EXTT9=
EXTT10=
EXTT11=
EXTT12=
EXTT13=
EXTT14=
PLAYORDER=
